<svg xmlns="http://www.w3.org/2000/svg" xmlns:xlink="http://www.w3.org/1999/xlink" width="48" zoomAndPan="magnify" viewBox="0 0 36 36.000001" height="48" preserveAspectRatio="xMidYMid meet" version="1.0"><defs><clipPath id="eda832dfa3"><path d="M 0.488281 0 L 35.511719 0 L 35.511719 35.027344 L 0.488281 35.027344 Z M 0.488281 0 " clip-rule="nonzero"/></clipPath><clipPath id="4625366473"><path d="M 5.222656 4.710938 L 26 4.710938 L 26 25 L 5.222656 25 Z M 5.222656 4.710938 " clip-rule="nonzero"/></clipPath><clipPath id="db10928604"><path d="M 9 10 L 30 10 L 30 30.25 L 9 30.25 Z M 9 10 " clip-rule="nonzero"/></clipPath></defs><g clip-path="url(#eda832dfa3)"><path fill="#ffffff" d="M 0.488281 0 L 35.511719 0 L 35.511719 35.027344 L 0.488281 35.027344 Z M 0.488281 0 " fill-opacity="1" fill-rule="nonzero"/><path fill="#02273d" d="M 0.488281 0 L 35.511719 0 L 35.511719 35.027344 L 0.488281 35.027344 Z M 0.488281 0 " fill-opacity="1" fill-rule="nonzero"/></g><g clip-path="url(#4625366473)"><path fill="#00be64" d="M 15.320312 4.710938 C 15.984375 4.710938 16.636719 4.773438 17.285156 4.902344 C 17.933594 5.03125 18.5625 5.222656 19.171875 5.472656 C 19.78125 5.722656 20.363281 6.03125 20.910156 6.398438 C 21.460938 6.761719 21.96875 7.175781 22.433594 7.640625 C 22.902344 8.105469 23.320312 8.613281 23.6875 9.160156 C 24.054688 9.703125 24.363281 10.28125 24.617188 10.886719 C 24.867188 11.496094 25.058594 12.121094 25.1875 12.765625 C 25.316406 13.410156 25.382812 14.0625 25.382812 14.71875 C 25.382812 15.375 25.316406 16.027344 25.1875 16.671875 C 25.058594 17.316406 24.867188 17.941406 24.617188 18.546875 C 24.363281 19.15625 24.054688 19.730469 23.6875 20.277344 C 23.320312 20.824219 22.902344 21.328125 22.433594 21.792969 C 21.96875 22.257812 21.460938 22.671875 20.910156 23.039062 C 20.363281 23.402344 19.78125 23.710938 19.171875 23.964844 C 18.5625 24.214844 17.933594 24.40625 17.285156 24.53125 C 16.636719 24.660156 15.984375 24.726562 15.320312 24.726562 C 14.660156 24.726562 14.007812 24.660156 13.359375 24.53125 C 12.710938 24.40625 12.082031 24.214844 11.472656 23.964844 C 10.863281 23.710938 10.28125 23.402344 9.734375 23.039062 C 9.183594 22.671875 8.675781 22.257812 8.210938 21.792969 C 7.742188 21.328125 7.324219 20.824219 6.957031 20.277344 C 6.589844 19.730469 6.28125 19.15625 6.027344 18.546875 C 5.777344 17.941406 5.585938 17.316406 5.457031 16.671875 C 5.328125 16.027344 5.261719 15.375 5.261719 14.71875 C 5.261719 14.0625 5.328125 13.410156 5.457031 12.765625 C 5.585938 12.121094 5.777344 11.496094 6.027344 10.886719 C 6.28125 10.28125 6.589844 9.703125 6.957031 9.160156 C 7.324219 8.613281 7.742188 8.105469 8.210938 7.640625 C 8.675781 7.175781 9.183594 6.761719 9.734375 6.398438 C 10.28125 6.03125 10.863281 5.722656 11.472656 5.472656 C 12.082031 5.222656 12.710938 5.03125 13.359375 4.902344 C 14.007812 4.773438 14.660156 4.710938 15.320312 4.710938 Z M 15.320312 4.710938 " fill-opacity="1" fill-rule="nonzero"/></g><g clip-path="url(#db10928604)"><path fill="#c0ff71" d="M 9.484375 30.253906 L 9.484375 20.246094 C 9.484375 14.722656 13.992188 10.238281 19.542969 10.238281 C 25.09375 10.238281 29.601562 14.722656 29.601562 20.246094 C 29.601562 25.769531 25.09375 30.253906 19.542969 30.253906 Z M 9.484375 30.253906 " fill-opacity="1" fill-rule="nonzero"/></g></svg>